# xmcd
#
# Track frame offsets: 
#        150
#        37223
#        54407
#        85448
#        103751
#        123118
#
# Disc length: 1791 seconds
#
# Revision: 0
# Processed by: cddbd v1.5.2PL0 Copyright (c) Steve Scherf et al.
# Submitted via: ExactAudioCopy v0.99pb5
#
DISCID=4c06fd06
DTITLE=Eric Clapton  - Flawless Disc 02 (MVR-356) Studio
DYEAR=1900
DGENRE=
TTITLE0=Going Down Slow
TTITLE1=I Got You I Feel Good
TTITLE2=Silver Rain
TTITLE3=Layla
TTITLE4=Rock Me Baby
TTITLE5=Jerry Roll
EXTD=
EXTT0=
EXTT1=
EXTT2=
EXTT3=
EXTT4=
EXTT5=
PLAYORDER=
